<svg id="svg" version="1.1" width="400" height="400" viewBox="0 0 400 400" xmlns="http://www.w3.org/2000/svg" xmlns:xlink="http://www.w3.org/1999/xlink" ><g id="svgg"><path id="path0" d="M100.200 76.414 C 77.520 79.460,68.226 107.329,84.472 123.575 C 98.830 137.933,123.559 132.115,130.112 112.838 C 136.684 93.508,120.416 73.698,100.200 76.414 M195.800 76.400 C 179.023 78.472,167.978 95.866,173.069 112.200 C 181.072 137.883,217.416 138.005,225.752 112.376 C 232.024 93.090,216.048 73.900,195.800 76.400 M291.400 76.399 C 268.911 79.163,259.347 107.189,275.376 123.356 C 292.690 140.818,322.813 128.465,322.802 103.908 C 322.800 99.405,321.070 92.867,319.325 90.769 C 319.036 90.421,318.800 89.927,318.800 89.671 C 318.800 88.835,314.929 84.375,312.536 82.453 C 306.607 77.693,298.879 75.479,291.400 76.399 M100.200 172.045 C 68.512 176.632,68.472 222.462,100.152 226.823 C 133.340 231.392,144.185 183.007,112.200 173.071 C 108.002 171.766,104.306 171.451,100.200 172.045 M291.400 172.047 C 277.049 174.134,267.424 185.300,267.478 199.800 C 267.491 203.305,267.672 205.018,268.148 206.149 C 268.507 207.001,268.800 207.950,268.800 208.257 C 268.800 210.485,273.291 217.393,276.608 220.266 C 294.560 235.818,322.865 223.032,322.801 199.400 C 322.779 191.487,317.906 181.327,312.442 177.800 C 311.760 177.360,311.202 176.865,311.201 176.700 C 311.201 176.535,310.943 176.400,310.629 176.400 C 310.314 176.400,309.817 176.175,309.522 175.900 C 307.966 174.444,302.634 172.606,298.271 172.020 C 294.801 171.554,294.785 171.554,291.400 172.047 M193.718 221.958 C 190.510 222.792,188.671 224.056,187.628 226.143 C 187.105 227.190,186.733 227.422,185.405 227.530 C 184.528 227.601,183.690 227.855,183.542 228.094 C 183.394 228.333,182.222 228.611,180.937 228.713 C 179.652 228.815,178.420 229.031,178.200 229.194 C 177.980 229.357,177.312 229.606,176.715 229.749 C 175.298 230.087,172.000 233.442,172.000 234.545 L 172.000 235.400 201.000 235.295 L 230.000 235.190 230.000 233.670 C 230.000 229.668,223.867 228.213,220.634 231.446 C 219.889 232.191,219.082 232.800,218.840 232.800 C 218.598 232.800,218.400 232.993,218.400 233.228 C 218.400 234.360,216.629 233.329,216.292 232.000 C 216.097 231.230,215.771 230.429,215.569 230.220 C 215.366 230.011,215.200 229.579,215.200 229.260 C 215.200 228.502,211.272 224.792,209.546 223.920 C 206.167 222.214,204.954 221.943,200.000 221.785 C 197.250 221.697,194.423 221.775,193.718 221.958 M100.200 267.576 C 94.251 268.475,87.669 271.642,84.400 275.178 C 74.185 286.227,73.402 301.262,82.453 312.536 C 84.375 314.929,88.835 318.800,89.671 318.800 C 89.927 318.800,90.421 319.036,90.769 319.325 C 97.538 324.952,112.434 323.533,121.534 316.395 C 142.967 299.581,127.198 263.496,100.200 267.576 M195.800 267.578 C 182.758 269.535,173.852 278.662,171.996 291.974 C 171.234 297.446,173.302 306.744,175.900 309.522 C 176.175 309.817,176.400 310.314,176.400 310.629 C 176.400 310.943,176.535 311.201,176.700 311.201 C 176.865 311.202,177.360 311.760,177.800 312.442 C 181.327 317.906,191.487 322.779,199.400 322.801 C 223.032 322.865,235.818 294.560,220.266 276.608 C 217.393 273.291,210.485 268.800,208.257 268.800 C 207.950 268.800,207.091 268.550,206.349 268.244 C 204.693 267.561,198.514 267.171,195.800 267.578 M290.924 267.601 C 289.562 267.791,288.089 268.138,287.650 268.373 C 287.212 268.608,286.567 268.800,286.218 268.800 C 281.121 268.800,268.853 280.975,268.794 286.092 C 268.791 286.371,268.497 287.410,268.142 288.400 C 267.170 291.104,267.262 298.982,268.304 302.422 C 274.566 323.081,299.568 329.665,314.617 314.617 C 333.406 295.827,317.324 263.914,290.924 267.601 " stroke="none" fill="#384a60" fill-rule="evenodd"></path><path id="path1" d="M171.400 0.490 C 169.640 0.691,167.887 1.023,167.505 1.228 C 167.123 1.433,165.831 1.600,164.634 1.600 C 163.232 1.600,162.243 1.814,161.857 2.200 C 161.469 2.588,160.479 2.800,159.052 2.800 C 157.839 2.800,156.736 2.980,156.600 3.200 C 156.464 3.420,155.778 3.601,155.076 3.602 C 154.374 3.604,153.284 3.874,152.654 4.202 C 152.024 4.531,150.912 4.800,150.183 4.800 C 149.454 4.800,148.587 5.070,148.257 5.400 C 147.927 5.730,147.014 6.000,146.229 6.000 C 145.443 6.000,144.800 6.180,144.800 6.400 C 144.800 6.620,144.192 6.800,143.449 6.800 C 142.706 6.800,141.874 7.070,141.600 7.400 C 141.326 7.730,140.488 8.000,139.738 8.000 C 138.895 8.000,138.287 8.229,138.145 8.600 C 138.004 8.967,137.397 9.200,136.581 9.200 C 135.847 9.200,135.136 9.380,135.000 9.600 C 134.864 9.820,134.245 10.000,133.625 10.000 C 133.005 10.000,132.274 10.270,132.000 10.600 C 131.726 10.930,131.074 11.200,130.551 11.200 C 129.972 11.200,129.600 11.435,129.600 11.800 C 129.600 12.233,129.156 12.400,128.000 12.400 C 127.120 12.400,126.400 12.580,126.400 12.800 C 126.400 13.020,125.950 13.200,125.400 13.200 C 124.778 13.200,124.400 13.427,124.400 13.800 C 124.400 14.233,123.956 14.400,122.800 14.400 C 121.644 14.400,121.200 14.567,121.200 15.000 C 121.200 15.400,120.800 15.600,120.000 15.600 C 119.340 15.600,118.800 15.780,118.800 16.000 C 118.800 16.220,118.422 16.400,117.960 16.400 C 117.499 16.400,116.554 16.651,115.860 16.957 C 115.167 17.264,114.330 17.626,114.000 17.762 C 113.670 17.898,112.860 18.354,112.200 18.775 C 111.540 19.197,110.679 19.555,110.287 19.571 C 109.896 19.587,109.471 19.870,109.345 20.200 C 109.218 20.530,108.684 20.800,108.157 20.800 C 107.573 20.800,107.200 21.034,107.200 21.400 C 107.200 21.773,106.822 22.000,106.200 22.000 C 105.650 22.000,105.200 22.160,105.200 22.357 C 105.200 22.553,104.750 22.826,104.200 22.964 C 103.650 23.102,103.200 23.392,103.200 23.608 C 103.200 23.823,102.930 24.000,102.600 24.000 C 102.270 24.000,102.000 24.270,102.000 24.600 C 102.000 25.000,101.600 25.200,100.800 25.200 C 100.140 25.200,99.600 25.360,99.600 25.557 C 99.600 25.753,99.150 26.026,98.600 26.164 C 98.050 26.302,97.600 26.592,97.600 26.808 C 97.600 27.023,97.330 27.200,97.000 27.200 C 96.670 27.200,96.400 27.470,96.400 27.800 C 96.400 28.146,96.038 28.400,95.546 28.400 C 95.076 28.400,94.275 28.850,93.765 29.400 C 93.255 29.950,92.470 30.400,92.019 30.400 C 91.558 30.400,91.200 30.662,91.200 31.000 C 91.200 31.346,90.838 31.600,90.346 31.600 C 89.876 31.600,89.075 32.050,88.565 32.600 C 88.055 33.150,87.270 33.600,86.819 33.600 C 86.358 33.600,86.000 33.862,86.000 34.200 C 86.000 34.530,85.683 34.800,85.296 34.800 C 84.909 34.800,84.107 35.250,83.513 35.800 C 82.920 36.350,82.247 36.800,82.017 36.800 C 81.788 36.800,81.600 37.070,81.600 37.400 C 81.600 37.730,81.330 38.000,81.000 38.000 C 80.670 38.000,80.400 38.180,80.400 38.400 C 80.400 38.620,80.130 38.800,79.800 38.800 C 79.470 38.800,78.480 39.520,77.600 40.400 C 76.720 41.280,75.820 42.000,75.600 42.000 C 75.380 42.000,75.200 42.270,75.200 42.600 C 75.200 42.973,74.822 43.200,74.200 43.200 C 73.578 43.200,73.200 43.427,73.200 43.800 C 73.200 44.130,73.006 44.400,72.769 44.400 C 72.209 44.400,70.000 46.609,70.000 47.169 C 70.000 47.406,69.666 47.600,69.258 47.600 C 68.850 47.600,67.287 48.770,65.785 50.200 C 64.283 51.630,62.907 52.800,62.727 52.800 C 62.547 52.800,62.400 53.070,62.400 53.400 C 62.400 53.730,62.207 54.000,61.971 54.000 C 61.418 54.000,60.400 55.018,60.400 55.571 C 60.400 55.807,60.130 56.000,59.800 56.000 C 59.470 56.000,59.200 56.270,59.200 56.600 C 59.200 56.930,59.007 57.200,58.771 57.200 C 58.218 57.200,57.200 58.218,57.200 58.771 C 57.200 59.007,56.930 59.200,56.600 59.200 C 56.270 59.200,56.000 59.470,56.000 59.800 C 56.000 60.130,55.807 60.400,55.571 60.400 C 55.018 60.400,54.000 61.418,54.000 61.971 C 54.000 62.207,53.730 62.400,53.400 62.400 C 53.070 62.400,52.800 62.565,52.800 62.767 C 52.800 62.969,51.926 64.004,50.858 65.067 C 49.790 66.130,48.788 67.405,48.631 67.900 C 48.474 68.395,48.178 68.800,47.973 68.800 C 47.768 68.800,47.600 69.070,47.600 69.400 C 47.600 69.730,47.391 70.000,47.136 70.000 C 46.439 70.000,44.400 72.438,44.400 73.272 C 44.400 73.672,44.130 74.000,43.800 74.000 C 43.470 74.000,43.200 74.270,43.200 74.600 C 43.200 74.930,42.930 75.200,42.600 75.200 C 42.270 75.200,42.000 75.470,42.000 75.800 C 42.000 76.130,41.820 76.400,41.600 76.400 C 41.380 76.400,41.200 76.651,41.200 76.957 C 41.200 77.264,40.930 77.618,40.600 77.745 C 40.270 77.871,40.000 78.341,40.000 78.787 C 40.000 79.243,39.736 79.600,39.400 79.600 C 39.070 79.600,38.800 79.761,38.800 79.958 C 38.800 80.155,38.353 80.740,37.807 81.258 C 37.261 81.776,36.811 82.434,36.807 82.719 C 36.803 83.005,36.395 83.636,35.900 84.122 C 34.985 85.020,34.211 86.117,33.727 87.200 C 33.579 87.530,33.355 87.890,33.229 88.000 C 32.705 88.459,31.600 90.921,31.600 91.632 C 31.600 92.055,31.404 92.400,31.164 92.400 C 30.537 92.400,29.229 94.076,29.213 94.900 C 29.206 95.285,29.020 95.600,28.800 95.600 C 28.580 95.600,28.400 95.851,28.400 96.157 C 28.400 96.464,28.130 96.818,27.800 96.945 C 27.470 97.071,27.200 97.521,27.200 97.945 C 27.200 98.368,26.930 98.818,26.600 98.945 C 26.270 99.071,26.000 99.541,26.000 99.987 C 26.000 100.434,25.841 100.800,25.647 100.800 C 25.452 100.800,25.188 101.115,25.058 101.500 C 24.812 102.235,23.963 103.659,23.569 104.000 C 23.087 104.416,22.000 106.954,22.000 107.661 C 22.000 108.068,21.730 108.400,21.400 108.400 C 21.034 108.400,20.800 108.773,20.800 109.357 C 20.800 109.884,20.530 110.418,20.200 110.545 C 19.870 110.671,19.600 111.130,19.600 111.564 C 19.600 111.998,19.420 112.464,19.200 112.600 C 18.980 112.736,18.800 113.267,18.800 113.781 C 18.800 114.294,18.530 114.818,18.200 114.945 C 17.870 115.071,17.600 115.430,17.600 115.742 C 17.600 116.053,17.331 116.824,17.002 117.454 C 16.674 118.084,16.404 118.904,16.402 119.276 C 16.401 119.648,16.220 120.064,16.000 120.200 C 15.780 120.336,15.600 121.067,15.600 121.824 C 15.600 122.780,15.417 123.200,15.000 123.200 C 14.622 123.200,14.400 123.581,14.400 124.229 C 14.400 124.794,14.130 125.527,13.800 125.857 C 13.470 126.187,13.200 126.894,13.200 127.429 C 13.200 127.963,13.020 128.400,12.800 128.400 C 12.580 128.400,12.400 128.863,12.400 129.429 C 12.400 129.994,12.130 130.727,11.800 131.057 C 11.470 131.387,11.200 132.107,11.200 132.657 C 11.200 133.207,10.930 133.927,10.600 134.257 C 10.270 134.587,10.000 135.384,10.000 136.029 C 10.000 136.673,9.820 137.200,9.600 137.200 C 9.380 137.200,9.200 137.920,9.200 138.800 C 9.200 139.956,9.033 140.400,8.600 140.400 C 8.169 140.400,8.000 140.841,8.000 141.967 C 8.000 142.828,7.802 143.599,7.561 143.680 C 7.319 143.760,7.025 144.679,6.908 145.722 C 6.790 146.765,6.538 147.715,6.347 147.833 C 6.156 147.951,6.000 148.735,6.000 149.575 C 6.000 150.444,5.742 151.316,5.400 151.600 C 5.029 151.908,4.795 152.805,4.787 153.949 C 4.780 154.967,4.510 156.149,4.187 156.576 C 3.864 157.004,3.600 158.118,3.600 159.053 C 3.600 159.988,3.420 160.864,3.200 161.000 C 2.980 161.136,2.794 162.362,2.787 163.724 C 2.779 165.264,2.553 166.493,2.187 166.976 C 1.804 167.483,1.600 168.702,1.600 170.482 C 1.600 171.983,1.434 173.523,1.230 173.905 C -0.383 176.936,-0.383 221.064,1.230 224.095 C 1.434 224.477,1.600 226.017,1.600 227.518 C 1.600 229.298,1.804 230.517,2.187 231.024 C 2.553 231.507,2.779 232.736,2.787 234.276 C 2.794 235.638,2.980 236.864,3.200 237.000 C 3.420 237.136,3.601 238.002,3.602 238.924 C 3.604 239.846,3.874 241.116,4.202 241.746 C 4.531 242.376,4.800 243.578,4.800 244.417 C 4.800 245.256,5.070 246.213,5.400 246.543 C 5.730 246.873,6.000 247.786,6.000 248.571 C 6.000 249.357,6.157 250.000,6.349 250.000 C 6.541 250.000,6.788 250.937,6.898 252.083 C 7.008 253.229,7.301 254.234,7.549 254.316 C 7.797 254.399,8.000 255.087,8.000 255.846 C 8.000 256.703,8.227 257.312,8.600 257.455 C 8.991 257.605,9.200 258.228,9.200 259.243 C 9.200 260.099,9.380 260.800,9.600 260.800 C 9.820 260.800,10.000 261.436,10.000 262.213 C 10.000 263.099,10.223 263.711,10.600 263.855 C 10.972 263.998,11.200 264.607,11.200 265.455 C 11.200 266.304,11.428 266.913,11.800 267.055 C 12.130 267.182,12.400 267.716,12.400 268.243 C 12.400 268.769,12.580 269.200,12.800 269.200 C 13.020 269.200,13.200 269.836,13.200 270.613 C 13.200 271.499,13.423 272.111,13.800 272.255 C 14.130 272.382,14.400 272.922,14.400 273.455 C 14.400 273.989,14.670 274.529,15.000 274.655 C 15.370 274.797,15.600 275.405,15.600 276.243 C 15.600 276.989,15.780 277.600,16.000 277.600 C 16.220 277.600,16.401 278.005,16.402 278.500 C 16.404 278.995,16.674 279.916,17.002 280.546 C 17.331 281.176,17.600 281.919,17.600 282.197 C 17.600 282.475,17.870 282.926,18.200 283.200 C 18.530 283.474,18.800 284.036,18.800 284.449 C 18.800 284.862,18.980 285.200,19.200 285.200 C 19.420 285.200,19.600 285.656,19.600 286.213 C 19.600 286.769,19.870 287.329,20.200 287.455 C 20.530 287.582,20.800 288.116,20.800 288.643 C 20.800 289.227,21.034 289.600,21.400 289.600 C 21.773 289.600,22.000 289.978,22.000 290.600 C 22.000 291.150,22.180 291.600,22.400 291.600 C 22.620 291.600,22.800 291.938,22.800 292.351 C 22.800 292.764,23.070 293.326,23.400 293.600 C 23.730 293.874,24.000 294.442,24.000 294.862 C 24.000 295.281,24.270 295.729,24.600 295.855 C 24.930 295.982,25.200 296.336,25.200 296.643 C 25.200 296.949,25.380 297.200,25.600 297.200 C 25.820 297.200,26.000 297.566,26.000 298.013 C 26.000 298.459,26.270 298.929,26.600 299.055 C 26.930 299.182,27.200 299.716,27.200 300.243 C 27.200 300.827,27.434 301.200,27.800 301.200 C 28.130 301.200,28.400 301.470,28.400 301.800 C 28.400 302.130,28.580 302.400,28.800 302.400 C 29.020 302.400,29.200 302.751,29.200 303.180 C 29.200 303.609,29.425 304.104,29.700 304.280 C 30.285 304.655,31.124 305.904,31.458 306.900 C 31.588 307.285,31.833 307.600,32.003 307.600 C 32.174 307.600,32.426 308.050,32.564 308.600 C 32.702 309.150,32.992 309.600,33.208 309.600 C 33.423 309.600,33.600 309.865,33.600 310.188 C 33.600 310.792,35.962 314.494,36.500 314.733 C 36.665 314.807,36.800 315.040,36.800 315.252 C 36.800 315.465,37.250 316.055,37.800 316.565 C 38.350 317.075,38.800 317.696,38.800 317.946 C 38.800 318.196,39.070 318.400,39.400 318.400 C 39.773 318.400,40.000 318.778,40.000 319.400 C 40.000 320.022,40.227 320.400,40.600 320.400 C 40.930 320.400,41.200 320.594,41.200 320.831 C 41.200 321.391,43.409 323.600,43.969 323.600 C 44.206 323.600,44.406 324.005,44.413 324.500 C 44.427 325.532,45.272 326.800,45.944 326.800 C 46.195 326.800,46.400 327.070,46.400 327.400 C 46.400 327.730,46.670 328.000,47.000 328.000 C 47.330 328.000,47.600 328.270,47.600 328.600 C 47.600 328.930,47.768 329.200,47.973 329.200 C 48.178 329.200,48.458 329.551,48.594 329.980 C 48.730 330.409,50.182 332.132,51.821 333.808 C 53.459 335.484,54.800 337.023,54.800 337.228 C 54.800 337.433,55.070 337.600,55.400 337.600 C 55.730 337.600,56.000 337.870,56.000 338.200 C 56.000 338.530,56.193 338.800,56.429 338.800 C 56.982 338.800,58.000 339.818,58.000 340.371 C 58.000 340.607,58.270 340.800,58.600 340.800 C 58.930 340.800,59.200 341.070,59.200 341.400 C 59.200 341.730,59.393 342.000,59.629 342.000 C 60.182 342.000,61.200 343.018,61.200 343.571 C 61.200 343.807,61.379 344.000,61.597 344.000 C 61.815 344.000,63.147 345.170,64.556 346.600 C 65.965 348.030,67.316 349.200,67.559 349.200 C 67.801 349.200,68.000 349.470,68.000 349.800 C 68.000 350.130,68.193 350.400,68.429 350.400 C 68.664 350.400,69.108 350.625,69.415 350.900 C 70.738 352.087,71.191 352.400,71.583 352.400 C 71.812 352.400,72.000 352.670,72.000 353.000 C 72.000 353.330,72.171 353.600,72.379 353.600 C 72.588 353.600,73.244 354.050,73.838 354.600 C 74.431 355.150,75.251 355.600,75.658 355.600 C 76.066 355.600,76.400 355.794,76.400 356.031 C 76.400 356.699,78.662 358.800,79.382 358.800 C 79.736 358.800,80.129 359.070,80.255 359.400 C 80.382 359.730,80.655 360.000,80.862 360.000 C 81.069 360.000,81.655 360.450,82.165 361.000 C 82.675 361.550,83.277 362.000,83.503 362.000 C 83.729 362.000,84.018 362.270,84.145 362.600 C 84.271 362.930,84.659 363.200,85.007 363.200 C 85.354 363.200,86.055 363.650,86.565 364.200 C 87.075 364.750,87.876 365.200,88.346 365.200 C 88.816 365.200,89.200 365.427,89.200 365.705 C 89.200 366.185,90.164 366.850,91.700 367.429 C 92.085 367.574,92.400 367.852,92.400 368.047 C 92.400 368.241,92.850 368.400,93.400 368.400 C 94.022 368.400,94.400 368.627,94.400 369.000 C 94.400 369.338,94.758 369.600,95.219 369.600 C 95.670 369.600,96.455 370.050,96.965 370.600 C 97.475 371.150,98.257 371.600,98.703 371.600 C 99.149 371.600,99.618 371.870,99.745 372.200 C 99.871 372.530,100.296 372.803,100.687 372.807 C 101.079 372.811,101.824 373.261,102.342 373.807 C 102.860 374.353,103.715 374.800,104.242 374.800 C 104.827 374.800,105.200 375.034,105.200 375.400 C 105.200 375.766,105.573 376.000,106.157 376.000 C 106.684 376.000,107.218 376.270,107.345 376.600 C 107.471 376.930,107.941 377.200,108.387 377.200 C 108.834 377.200,109.200 377.380,109.200 377.600 C 109.200 377.820,109.549 378.000,109.976 378.000 C 110.403 378.000,110.856 378.167,110.983 378.372 C 111.275 378.845,115.966 381.200,116.615 381.200 C 116.883 381.200,117.326 381.470,117.600 381.800 C 117.874 382.130,118.481 382.406,118.949 382.413 C 119.417 382.420,120.149 382.690,120.576 383.013 C 121.004 383.336,121.769 383.600,122.276 383.600 C 122.784 383.600,123.200 383.780,123.200 384.000 C 123.200 384.220,123.920 384.400,124.800 384.400 C 125.956 384.400,126.400 384.567,126.400 385.000 C 126.400 385.378,126.781 385.600,127.429 385.600 C 127.994 385.600,128.727 385.870,129.057 386.200 C 129.387 386.530,130.084 386.800,130.605 386.800 C 131.126 386.800,131.664 386.980,131.800 387.200 C 131.936 387.420,132.647 387.600,133.381 387.600 C 134.197 387.600,134.804 387.833,134.945 388.200 C 135.087 388.572,135.696 388.800,136.545 388.800 C 137.393 388.800,138.002 389.028,138.145 389.400 C 138.288 389.774,138.898 390.000,139.764 390.000 C 140.528 390.000,141.264 390.180,141.400 390.400 C 141.536 390.620,142.272 390.800,143.036 390.800 C 143.902 390.800,144.512 391.026,144.655 391.400 C 144.804 391.788,145.424 392.000,146.409 392.000 C 147.248 392.000,147.999 392.198,148.080 392.439 C 148.160 392.681,149.079 392.975,150.122 393.092 C 151.165 393.210,152.115 393.462,152.233 393.653 C 152.351 393.844,153.317 394.000,154.381 394.000 C 155.731 394.000,156.384 394.181,156.545 394.600 C 156.714 395.040,157.408 395.200,159.154 395.200 C 160.618 395.200,161.593 395.380,161.690 395.669 C 161.779 395.937,162.952 396.213,164.423 396.312 C 165.840 396.408,167.171 396.647,167.380 396.843 C 167.589 397.040,169.038 397.200,170.600 397.200 C 172.339 397.200,173.634 397.394,173.940 397.700 C 174.469 398.230,178.654 398.567,191.800 399.138 C 202.410 399.599,223.901 398.664,224.862 397.700 C 225.175 397.385,226.516 397.200,228.480 397.200 C 230.196 397.200,231.600 397.041,231.600 396.847 C 231.600 396.652,232.804 396.417,234.275 396.323 C 235.850 396.223,237.014 395.957,237.108 395.676 C 237.207 395.379,238.161 395.200,239.646 395.200 C 241.392 395.200,242.086 395.040,242.255 394.600 C 242.421 394.169,243.094 394.000,244.643 394.000 C 245.829 394.000,246.800 393.820,246.800 393.600 C 246.800 393.380,247.486 393.200,248.324 393.200 C 249.161 393.200,250.196 392.936,250.624 392.613 C 251.051 392.290,252.075 392.020,252.900 392.013 C 253.961 392.004,254.400 391.824,254.400 391.400 C 254.400 390.967,254.844 390.800,256.000 390.800 C 256.880 390.800,257.600 390.620,257.600 390.400 C 257.600 390.180,258.236 390.000,259.013 390.000 C 259.899 390.000,260.511 389.777,260.655 389.400 C 260.805 389.009,261.428 388.800,262.443 388.800 C 263.560 388.800,264.000 388.631,264.000 388.200 C 264.000 387.767,264.444 387.600,265.600 387.600 C 266.480 387.600,267.200 387.420,267.200 387.200 C 267.200 386.980,267.616 386.800,268.124 386.800 C 268.631 386.800,269.396 386.536,269.824 386.213 C 270.251 385.890,271.005 385.620,271.500 385.613 C 272.028 385.605,272.400 385.352,272.400 385.000 C 272.400 384.567,272.844 384.400,274.000 384.400 C 274.880 384.400,275.600 384.243,275.600 384.051 C 275.600 383.859,276.320 383.587,277.200 383.446 C 278.080 383.306,278.800 383.013,278.800 382.795 C 278.800 382.578,279.237 382.400,279.771 382.400 C 280.306 382.400,281.013 382.130,281.343 381.800 C 281.673 381.470,282.165 381.200,282.437 381.200 C 283.205 381.200,286.000 379.885,286.000 379.523 C 286.000 379.345,286.338 379.200,286.751 379.200 C 287.164 379.200,287.726 378.930,288.000 378.600 C 288.274 378.270,288.746 378.000,289.049 378.000 C 289.352 378.000,289.600 377.820,289.600 377.600 C 289.600 377.380,290.050 377.200,290.600 377.200 C 291.222 377.200,291.600 376.973,291.600 376.600 C 291.600 376.225,291.979 376.000,292.613 376.000 C 293.169 376.000,293.729 375.730,293.855 375.400 C 293.982 375.070,294.516 374.800,295.043 374.800 C 295.569 374.800,296.000 374.649,296.000 374.464 C 296.000 374.280,296.718 373.785,297.595 373.364 C 298.473 372.944,299.193 372.375,299.195 372.100 C 299.198 371.825,299.650 371.600,300.200 371.600 C 300.750 371.600,301.200 371.463,301.200 371.295 C 301.200 370.989,302.385 370.267,303.700 369.771 C 304.085 369.626,304.400 369.258,304.400 368.953 C 304.400 368.630,304.815 368.400,305.400 368.400 C 305.950 368.400,306.400 368.220,306.400 368.000 C 306.400 367.780,306.657 367.600,306.971 367.600 C 307.286 367.600,307.788 367.375,308.088 367.100 C 308.781 366.465,309.844 365.802,311.537 364.948 C 312.272 364.577,312.966 364.032,313.080 363.737 C 313.193 363.442,313.581 363.197,313.943 363.193 C 314.304 363.189,315.024 362.739,315.542 362.193 C 316.060 361.647,316.645 361.200,316.842 361.200 C 317.039 361.200,317.200 360.930,317.200 360.600 C 317.200 360.264,317.557 360.000,318.013 360.000 C 318.459 360.000,318.929 359.730,319.055 359.400 C 319.182 359.070,319.471 358.800,319.697 358.800 C 319.923 358.800,320.525 358.350,321.035 357.800 C 321.545 357.250,322.150 356.800,322.381 356.800 C 322.611 356.800,322.800 356.530,322.800 356.200 C 322.800 355.867,323.156 355.600,323.600 355.600 C 324.040 355.600,324.400 355.420,324.400 355.200 C 324.400 354.980,324.630 354.800,324.911 354.800 C 325.485 354.800,326.800 353.404,326.800 352.795 C 326.800 352.578,327.070 352.400,327.400 352.400 C 327.730 352.400,328.000 352.232,328.000 352.027 C 328.000 351.822,328.363 351.539,328.807 351.398 C 329.251 351.257,330.539 350.255,331.669 349.171 C 332.800 348.087,333.877 347.200,334.062 347.200 C 334.248 347.200,334.400 346.930,334.400 346.600 C 334.400 346.270,334.593 346.000,334.829 346.000 C 335.382 346.000,336.400 344.982,336.400 344.429 C 336.400 344.193,336.670 344.000,337.000 344.000 C 337.330 344.000,337.600 343.730,337.600 343.400 C 337.600 343.070,337.793 342.800,338.029 342.800 C 338.582 342.800,339.600 341.782,339.600 341.229 C 339.600 340.993,339.870 340.800,340.200 340.800 C 340.530 340.800,340.800 340.530,340.800 340.200 C 340.800 339.870,340.993 339.600,341.229 339.600 C 341.782 339.600,342.800 338.582,342.800 338.029 C 342.800 337.793,343.070 337.600,343.400 337.600 C 343.730 337.600,344.000 337.330,344.000 337.000 C 344.000 336.670,344.193 336.400,344.429 336.400 C 344.982 336.400,346.000 335.382,346.000 334.829 C 346.000 334.593,346.270 334.400,346.600 334.400 C 346.930 334.400,347.200 334.248,347.200 334.062 C 347.200 333.877,348.087 332.800,349.171 331.669 C 350.255 330.539,351.257 329.251,351.398 328.807 C 351.539 328.363,351.822 328.000,352.027 328.000 C 352.232 328.000,352.400 327.730,352.400 327.400 C 352.400 327.070,352.605 326.800,352.856 326.800 C 353.408 326.800,354.183 325.845,355.047 324.100 C 355.401 323.385,355.941 322.800,356.246 322.800 C 356.551 322.800,356.800 322.611,356.800 322.381 C 356.800 322.150,357.250 321.545,357.800 321.035 C 358.350 320.525,358.800 319.808,358.800 319.442 C 358.800 319.075,359.070 318.671,359.400 318.545 C 359.730 318.418,360.000 318.064,360.000 317.757 C 360.000 317.451,360.225 317.198,360.500 317.195 C 360.917 317.191,362.640 315.026,363.141 313.876 C 363.219 313.698,363.714 313.087,364.241 312.518 C 364.769 311.949,365.200 311.149,365.200 310.742 C 365.200 310.334,365.370 310.000,365.578 310.000 C 365.951 310.000,366.938 308.461,367.437 307.100 C 367.578 306.715,367.852 306.400,368.047 306.400 C 368.241 306.400,368.400 305.950,368.400 305.400 C 368.400 304.778,368.627 304.400,369.000 304.400 C 369.373 304.400,369.600 304.022,369.600 303.400 C 369.600 302.778,369.827 302.400,370.200 302.400 C 370.530 302.400,370.800 302.130,370.800 301.800 C 370.800 301.470,370.980 301.200,371.200 301.200 C 371.420 301.200,371.600 300.750,371.600 300.200 C 371.600 299.578,371.827 299.200,372.200 299.200 C 372.530 299.200,372.800 298.849,372.800 298.421 C 372.800 297.992,373.250 297.156,373.800 296.562 C 374.350 295.969,374.800 295.169,374.800 294.784 C 374.800 294.400,375.070 293.982,375.400 293.855 C 375.730 293.729,376.000 293.189,376.000 292.655 C 376.000 292.122,376.270 291.582,376.600 291.455 C 376.930 291.329,377.200 290.859,377.200 290.413 C 377.200 289.966,377.380 289.600,377.600 289.600 C 377.820 289.600,378.000 289.169,378.000 288.643 C 378.000 288.116,378.270 287.582,378.600 287.455 C 378.930 287.329,379.200 286.769,379.200 286.213 C 379.200 285.656,379.367 285.200,379.571 285.200 C 380.039 285.200,381.200 282.906,381.200 281.981 C 381.200 281.599,381.470 281.182,381.800 281.055 C 382.130 280.929,382.406 280.414,382.413 279.913 C 382.420 279.411,382.690 278.651,383.013 278.224 C 383.336 277.796,383.600 277.042,383.600 276.547 C 383.600 276.052,383.780 275.536,384.000 275.400 C 384.220 275.264,384.400 274.533,384.400 273.776 C 384.400 272.820,384.583 272.400,385.000 272.400 C 385.433 272.400,385.600 271.956,385.600 270.800 C 385.600 269.644,385.767 269.200,386.200 269.200 C 386.573 269.200,386.800 268.822,386.800 268.200 C 386.800 267.650,386.980 267.200,387.200 267.200 C 387.420 267.200,387.600 266.480,387.600 265.600 C 387.600 264.444,387.767 264.000,388.200 264.000 C 388.631 264.000,388.800 263.560,388.800 262.443 C 388.800 261.428,389.009 260.805,389.400 260.655 C 389.777 260.511,390.000 259.899,390.000 259.013 C 390.000 258.236,390.180 257.600,390.400 257.600 C 390.620 257.600,390.800 256.899,390.800 256.043 C 390.800 255.028,391.009 254.405,391.400 254.255 C 391.821 254.094,392.000 253.437,392.000 252.055 C 392.000 250.673,392.179 250.017,392.600 249.855 C 392.974 249.712,393.200 249.102,393.200 248.236 C 393.200 247.472,393.380 246.736,393.600 246.600 C 393.820 246.464,394.000 245.485,394.000 244.425 C 394.000 243.200,394.219 242.317,394.600 242.000 C 394.995 241.672,395.200 240.779,395.200 239.384 C 395.200 238.121,395.389 237.204,395.669 237.110 C 395.937 237.021,396.213 235.848,396.312 234.377 C 396.408 232.960,396.647 231.629,396.843 231.420 C 397.040 231.211,397.200 229.561,397.200 227.753 C 397.200 225.480,397.354 224.415,397.700 224.300 C 398.233 224.123,398.517 220.596,399.126 206.600 C 399.577 196.231,398.639 174.474,397.700 173.538 C 397.388 173.227,397.200 171.900,397.200 170.000 C 397.200 168.328,397.040 166.789,396.843 166.580 C 396.647 166.371,396.408 165.040,396.312 163.623 C 396.213 162.152,395.937 160.979,395.669 160.890 C 395.389 160.796,395.200 159.879,395.200 158.616 C 395.200 157.221,394.995 156.328,394.600 156.000 C 394.219 155.683,394.000 154.800,394.000 153.575 C 394.000 152.515,393.820 151.536,393.600 151.400 C 393.380 151.264,393.200 150.555,393.200 149.825 C 393.200 149.095,392.930 148.274,392.600 148.000 C 392.233 147.695,392.000 146.818,392.000 145.738 C 392.000 144.540,391.808 143.901,391.400 143.745 C 391.009 143.595,390.800 142.972,390.800 141.957 C 390.800 141.101,390.620 140.400,390.400 140.400 C 390.180 140.400,390.000 139.764,390.000 138.987 C 390.000 138.101,389.777 137.489,389.400 137.345 C 389.009 137.195,388.800 136.572,388.800 135.557 C 388.800 134.440,388.631 134.000,388.200 134.000 C 387.767 134.000,387.600 133.556,387.600 132.400 C 387.600 131.520,387.420 130.800,387.200 130.800 C 386.980 130.800,386.800 130.344,386.800 129.787 C 386.800 129.231,386.530 128.671,386.200 128.545 C 385.835 128.405,385.600 127.799,385.600 127.000 C 385.600 126.201,385.365 125.595,385.000 125.455 C 384.653 125.322,384.400 124.724,384.400 124.036 C 384.400 123.382,384.220 122.736,384.000 122.600 C 383.780 122.464,383.600 121.948,383.600 121.453 C 383.600 120.958,383.336 120.204,383.013 119.776 C 382.690 119.349,382.420 118.589,382.413 118.087 C 382.406 117.586,382.130 117.071,381.800 116.945 C 381.470 116.818,381.200 116.284,381.200 115.757 C 381.200 115.231,381.020 114.800,380.800 114.800 C 380.580 114.800,380.400 114.462,380.400 114.049 C 380.400 113.636,380.130 113.074,379.800 112.800 C 379.470 112.526,379.200 111.874,379.200 111.351 C 379.200 110.772,378.965 110.400,378.600 110.400 C 378.227 110.400,378.000 110.022,378.000 109.400 C 378.000 108.850,377.820 108.400,377.600 108.400 C 377.380 108.400,377.200 107.944,377.200 107.387 C 377.200 106.831,376.930 106.271,376.600 106.145 C 376.270 106.018,376.000 105.568,376.000 105.145 C 376.000 104.721,375.730 104.271,375.400 104.145 C 375.070 104.018,374.800 103.700,374.800 103.437 C 374.800 102.554,373.805 100.806,373.300 100.803 C 373.025 100.801,372.800 100.350,372.800 99.800 C 372.800 99.178,372.573 98.800,372.200 98.800 C 371.827 98.800,371.600 98.422,371.600 97.800 C 371.600 97.250,371.420 96.800,371.200 96.800 C 370.980 96.800,370.800 96.530,370.800 96.200 C 370.800 95.870,370.530 95.600,370.200 95.600 C 369.830 95.600,369.600 95.224,369.600 94.620 C 369.600 94.081,369.365 93.496,369.078 93.320 C 368.792 93.144,368.237 92.370,367.846 91.600 C 366.323 88.604,365.943 88.000,365.578 88.000 C 365.370 88.000,365.200 87.666,365.200 87.258 C 365.200 86.851,364.750 86.031,364.200 85.438 C 363.650 84.844,363.200 84.188,363.200 83.979 C 363.200 83.771,362.930 83.600,362.600 83.600 C 362.259 83.600,362.000 83.241,362.000 82.769 C 362.000 81.906,359.985 79.600,359.231 79.600 C 358.994 79.600,358.800 79.150,358.800 78.600 C 358.800 78.050,358.620 77.600,358.400 77.600 C 358.180 77.600,358.000 77.330,358.000 77.000 C 358.000 76.670,357.730 76.400,357.400 76.400 C 357.070 76.400,356.800 76.130,356.800 75.800 C 356.800 75.470,356.530 75.200,356.200 75.200 C 355.870 75.200,355.600 74.930,355.600 74.600 C 355.600 74.270,355.420 74.000,355.200 74.000 C 354.980 74.000,354.800 73.730,354.800 73.400 C 354.800 73.070,354.080 72.080,353.200 71.200 C 352.320 70.320,351.600 69.460,351.600 69.289 C 351.600 69.118,351.060 68.387,350.400 67.664 C 349.740 66.942,349.200 66.286,349.200 66.206 C 349.200 65.889,346.714 63.600,346.369 63.600 C 346.166 63.600,346.000 63.406,346.000 63.169 C 346.000 62.609,343.791 60.400,343.231 60.400 C 342.994 60.400,342.800 60.206,342.800 59.969 C 342.800 59.409,340.591 57.200,340.031 57.200 C 339.794 57.200,339.600 57.006,339.600 56.769 C 339.600 56.209,337.391 54.000,336.831 54.000 C 336.594 54.000,336.400 53.806,336.400 53.569 C 336.400 53.009,334.191 50.800,333.631 50.800 C 333.394 50.800,333.200 50.530,333.200 50.200 C 333.200 49.870,332.973 49.600,332.695 49.600 C 332.417 49.600,331.852 49.150,331.439 48.600 C 331.026 48.050,330.353 47.600,329.944 47.600 C 329.535 47.600,329.200 47.330,329.200 47.000 C 329.200 46.670,328.930 46.400,328.600 46.400 C 328.270 46.400,328.000 46.130,328.000 45.800 C 328.000 45.470,327.796 45.200,327.546 45.200 C 327.296 45.200,326.675 44.750,326.165 44.200 C 325.655 43.650,324.870 43.200,324.419 43.200 C 323.969 43.200,323.600 43.007,323.600 42.771 C 323.600 42.218,322.582 41.200,322.029 41.200 C 321.793 41.200,321.600 40.930,321.600 40.600 C 321.600 40.270,321.429 40.000,321.221 40.000 C 321.012 40.000,320.356 39.550,319.762 39.000 C 319.169 38.450,318.349 38.000,317.942 38.000 C 317.534 38.000,317.196 37.775,317.191 37.500 C 317.182 36.950,314.340 34.800,313.624 34.800 C 313.377 34.800,313.071 34.530,312.945 34.200 C 312.818 33.870,312.368 33.600,311.945 33.600 C 311.521 33.600,311.071 33.330,310.945 33.000 C 310.818 32.670,310.464 32.400,310.157 32.400 C 309.851 32.400,309.600 32.220,309.600 32.000 C 309.600 31.780,309.150 31.600,308.600 31.600 C 308.050 31.600,307.600 31.373,307.600 31.095 C 307.600 30.615,306.636 29.950,305.100 29.371 C 304.715 29.226,304.400 28.948,304.400 28.753 C 304.400 28.559,303.950 28.400,303.400 28.400 C 302.778 28.400,302.400 28.173,302.400 27.800 C 302.400 27.470,302.149 27.200,301.843 27.200 C 301.536 27.200,301.182 26.930,301.055 26.600 C 300.929 26.270,300.459 26.000,300.013 26.000 C 299.566 26.000,299.200 25.820,299.200 25.600 C 299.200 25.380,298.834 25.200,298.387 25.200 C 297.941 25.200,297.471 24.930,297.345 24.600 C 297.218 24.270,296.864 24.000,296.557 24.000 C 296.251 24.000,296.000 23.855,296.000 23.677 C 296.000 23.273,293.164 22.000,292.266 22.000 C 291.900 22.000,291.600 21.730,291.600 21.400 C 291.600 21.027,291.222 20.800,290.600 20.800 C 290.050 20.800,289.600 20.628,289.600 20.419 C 289.600 20.209,288.925 19.744,288.100 19.385 C 287.275 19.027,286.330 18.567,286.000 18.364 C 285.670 18.161,285.130 17.887,284.800 17.755 C 284.470 17.622,283.633 17.264,282.940 16.957 C 282.246 16.651,281.402 16.400,281.063 16.400 C 280.724 16.400,280.336 16.220,280.200 16.000 C 280.064 15.780,279.508 15.600,278.964 15.600 C 278.420 15.600,277.871 15.330,277.745 15.000 C 277.605 14.635,276.999 14.400,276.200 14.400 C 275.401 14.400,274.795 14.165,274.655 13.800 C 274.529 13.470,273.969 13.200,273.413 13.200 C 272.856 13.200,272.400 13.020,272.400 12.800 C 272.400 12.580,271.882 12.400,271.249 12.400 C 270.616 12.400,269.874 12.130,269.600 11.800 C 269.326 11.470,268.751 11.200,268.322 11.200 C 267.894 11.200,267.273 10.930,266.943 10.600 C 266.613 10.270,265.816 10.000,265.171 10.000 C 264.527 10.000,264.000 9.820,264.000 9.600 C 264.000 9.380,263.280 9.200,262.400 9.200 C 261.244 9.200,260.800 9.033,260.800 8.600 C 260.800 8.169,260.360 8.000,259.243 8.000 C 258.228 8.000,257.605 7.791,257.455 7.400 C 257.311 7.023,256.699 6.800,255.813 6.800 C 255.036 6.800,254.400 6.620,254.400 6.400 C 254.400 6.180,253.702 6.000,252.849 6.000 C 251.958 6.000,251.086 5.745,250.800 5.400 C 250.499 5.037,249.623 4.800,248.584 4.800 C 247.640 4.800,246.799 4.597,246.716 4.349 C 246.634 4.101,245.625 3.808,244.475 3.698 C 243.324 3.587,242.286 3.340,242.168 3.148 C 242.050 2.957,240.898 2.800,239.610 2.800 C 238.130 2.800,237.207 2.621,237.105 2.315 C 237.016 2.047,235.793 1.699,234.372 1.536 C 232.957 1.375,229.910 0.972,227.600 0.640 C 222.769 -0.052,177.208 -0.174,171.400 0.490 M111.708 76.234 C 112.538 76.545,113.466 76.800,113.772 76.800 C 114.594 76.800,119.840 79.856,122.173 81.693 C 135.171 91.932,136.149 112.284,124.217 124.217 C 109.204 139.229,82.430 132.828,76.464 112.800 C 75.218 108.616,75.083 98.725,76.237 96.140 C 76.547 95.446,76.800 94.598,76.800 94.254 C 76.800 93.910,77.282 92.767,77.872 91.714 C 78.462 90.661,79.162 89.383,79.428 88.874 C 81.043 85.784,85.656 81.204,89.006 79.364 C 89.443 79.124,90.661 78.449,91.714 77.864 C 92.767 77.279,93.910 76.800,94.254 76.800 C 94.598 76.800,95.446 76.536,96.140 76.213 C 98.417 75.152,108.863 75.166,111.708 76.234 M208.200 76.482 C 222.047 81.007,230.706 95.506,227.770 109.251 C 223.799 127.839,204.715 137.697,187.483 130.063 C 170.218 122.414,165.192 99.635,177.584 85.196 C 180.462 81.843,187.829 76.800,189.850 76.800 C 190.196 76.800,191.046 76.536,191.740 76.213 C 194.267 75.036,204.275 75.199,208.200 76.482 M302.880 76.256 C 303.474 76.555,304.284 76.803,304.680 76.806 C 308.244 76.833,316.911 84.237,320.175 90.041 C 324.787 98.242,324.864 109.366,320.365 117.427 C 316.729 123.939,308.176 131.188,304.110 131.202 C 303.719 131.204,302.884 131.474,302.254 131.802 C 301.384 132.256,299.641 132.400,295.000 132.400 C 290.359 132.400,288.616 132.256,287.746 131.802 C 287.116 131.474,286.281 131.204,285.890 131.202 C 280.601 131.184,267.673 118.101,267.586 112.678 C 267.578 112.195,267.314 111.350,267.000 110.800 C 266.170 109.349,266.170 98.924,267.000 96.938 C 267.330 96.149,267.606 95.209,267.613 94.851 C 267.719 89.418,277.845 79.460,286.400 76.375 C 289.580 75.228,300.683 75.148,302.880 76.256 M172.000 160.351 C 183.032 162.524,190.090 168.567,191.211 176.800 C 191.375 178.010,191.565 179.180,191.633 179.400 C 191.700 179.620,191.615 181.996,191.444 184.681 C 191.182 188.778,191.233 189.741,191.759 190.681 C 192.337 191.712,195.661 199.403,196.738 202.200 C 197.336 203.755,197.945 206.608,198.531 210.600 C 199.111 214.559,200.368 216.479,200.413 213.476 C 200.425 212.674,201.252 210.091,202.294 207.600 C 202.524 207.050,203.373 204.980,204.180 203.000 C 204.988 201.020,206.057 198.590,206.557 197.600 C 208.566 193.620,210.514 190.157,211.170 189.400 C 211.551 188.960,212.590 187.520,213.480 186.200 C 214.370 184.880,215.841 183.027,216.749 182.083 C 217.657 181.139,218.392 180.059,218.383 179.683 C 218.359 178.775,214.453 183.052,210.699 188.094 C 206.198 194.141,205.596 193.736,205.800 184.800 C 206.040 174.329,209.526 168.760,217.280 166.457 C 218.006 166.241,219.140 165.881,219.800 165.656 C 221.000 165.247,224.001 164.605,230.400 163.386 C 233.741 162.750,237.306 161.835,239.119 161.148 C 241.857 160.110,243.064 161.496,241.884 164.325 C 241.222 165.911,240.265 169.931,239.628 173.800 C 239.410 175.120,239.040 177.370,238.805 178.800 C 237.978 183.836,236.180 189.980,235.267 190.893 C 235.010 191.150,234.800 191.523,234.800 191.722 C 234.800 196.105,222.993 199.229,216.200 196.644 C 213.990 195.803,213.960 195.812,212.510 197.738 C 211.118 199.588,207.200 207.283,207.200 208.168 C 207.200 208.466,206.931 209.224,206.602 209.854 C 206.274 210.484,206.004 211.754,206.002 212.676 C 206.001 213.598,205.844 214.449,205.653 214.567 C 205.462 214.685,205.213 215.607,205.099 216.616 C 204.975 217.721,204.549 218.816,204.027 219.371 L 203.162 220.292 204.881 220.488 C 208.933 220.950,216.764 226.483,216.809 228.915 C 216.814 229.182,217.163 229.849,217.585 230.398 L 218.351 231.396 219.476 230.344 C 224.307 225.821,231.933 228.459,231.986 234.671 C 232.016 238.215,234.024 238.000,200.926 238.000 C 170.026 238.000,169.594 237.974,169.604 236.090 C 169.615 233.941,174.097 228.681,176.389 228.126 C 176.945 227.991,177.755 227.637,178.189 227.340 C 178.623 227.043,179.655 226.800,180.483 226.800 C 183.457 226.800,185.554 225.939,187.062 224.099 C 188.565 222.264,191.736 220.400,193.353 220.400 C 194.522 220.400,194.825 219.760,194.298 218.400 C 194.085 217.850,193.753 215.690,193.560 213.600 C 192.814 205.519,191.958 201.903,189.484 196.378 C 187.951 192.957,186.937 192.252,183.069 191.919 C 176.900 191.388,173.313 190.889,172.483 190.445 C 172.026 190.200,171.180 190.000,170.602 190.000 C 166.197 190.000,157.600 182.054,157.600 177.983 C 157.600 177.578,157.430 177.142,157.223 177.014 C 157.016 176.886,156.725 175.973,156.577 174.986 C 156.429 173.998,156.148 173.092,155.954 172.971 C 155.759 172.851,155.600 172.352,155.600 171.863 C 155.600 171.020,154.368 167.135,153.638 165.675 C 153.452 165.304,152.917 164.253,152.447 163.340 C 150.773 160.082,151.649 159.745,162.000 159.656 C 166.615 159.616,169.172 159.794,172.000 160.351 M109.000 171.172 C 130.601 175.646,139.860 199.951,126.554 217.258 C 122.577 222.431,116.249 226.275,109.251 227.770 C 95.410 230.727,81.164 222.156,76.389 208.000 C 75.249 204.621,75.098 193.816,76.162 191.800 C 76.510 191.140,76.796 190.290,76.798 189.910 C 76.818 184.088,89.258 172.826,97.200 171.439 C 97.970 171.305,99.320 171.037,100.200 170.843 C 102.750 170.283,105.140 170.373,109.000 171.172 M298.400 170.820 C 299.390 171.032,301.010 171.369,302.000 171.569 C 308.032 172.790,317.292 179.427,319.342 184.000 C 319.687 184.770,320.517 186.390,321.185 187.600 C 321.853 188.810,322.400 190.169,322.400 190.620 C 322.400 191.071,322.625 191.665,322.900 191.940 C 323.262 192.302,323.400 194.365,323.400 199.400 C 323.400 204.435,323.262 206.498,322.900 206.860 C 322.625 207.135,322.400 207.759,322.400 208.246 C 322.400 213.081,313.166 223.197,306.171 226.026 C 305.527 226.287,304.640 226.644,304.200 226.820 C 293.618 231.055,279.624 226.640,271.807 216.600 C 270.396 214.788,267.602 209.281,267.586 208.281 C 267.578 207.796,267.314 206.950,267.000 206.400 C 266.170 204.949,266.170 194.524,267.000 192.538 C 267.330 191.749,267.600 190.843,267.600 190.527 C 267.600 184.573,280.516 172.609,288.200 171.447 C 289.080 171.314,290.520 171.045,291.400 170.849 C 293.565 170.366,296.228 170.355,298.400 170.820 M110.800 267.000 C 111.350 267.314,112.195 267.578,112.678 267.586 C 118.101 267.673,131.184 280.601,131.202 285.890 C 131.204 286.281,131.474 287.116,131.802 287.746 C 132.256 288.616,132.400 290.359,132.400 295.000 C 132.400 299.641,132.256 301.384,131.802 302.254 C 131.474 302.884,131.204 303.719,131.202 304.110 C 131.188 308.176,123.939 316.729,117.427 320.365 C 109.366 324.864,98.242 324.787,90.041 320.175 C 84.919 317.295,80.643 312.815,78.229 307.800 C 73.290 297.541,74.599 285.823,81.686 276.849 C 84.695 273.039,92.362 267.661,94.854 267.613 C 95.214 267.606,96.114 267.337,96.854 267.016 C 98.743 266.196,109.372 266.184,110.800 267.000 M206.400 267.000 C 206.950 267.314,207.796 267.578,208.281 267.586 C 209.281 267.602,214.788 270.396,216.600 271.807 C 226.640 279.624,231.055 293.618,226.820 304.200 C 226.644 304.640,226.287 305.527,226.026 306.171 C 223.197 313.166,213.081 322.400,208.246 322.400 C 207.759 322.400,207.135 322.625,206.860 322.900 C 206.498 323.262,204.435 323.400,199.400 323.400 C 194.365 323.400,192.302 323.262,191.940 322.900 C 191.665 322.625,191.071 322.400,190.620 322.400 C 190.169 322.400,188.810 321.853,187.600 321.185 C 186.390 320.517,184.770 319.687,184.000 319.342 C 180.560 317.800,174.451 310.305,172.473 305.200 C 170.972 301.328,170.188 295.321,170.768 292.137 C 171.043 290.632,171.400 288.655,171.563 287.744 C 172.204 284.164,175.538 278.425,178.981 274.975 C 182.962 270.987,185.927 269.190,192.000 267.083 C 194.467 266.227,204.943 266.167,206.400 267.000 M301.862 267.000 C 302.651 267.330,303.539 267.600,303.834 267.600 C 305.989 267.600,314.298 273.000,316.450 275.800 C 316.957 276.460,317.477 277.090,317.605 277.200 C 318.777 278.205,322.400 285.010,322.400 286.204 C 322.400 286.664,322.625 287.265,322.900 287.540 C 323.262 287.902,323.400 289.965,323.400 295.000 C 323.400 300.035,323.262 302.098,322.900 302.460 C 322.625 302.735,322.400 303.336,322.400 303.795 C 322.400 309.249,309.249 322.400,303.795 322.400 C 303.336 322.400,302.735 322.625,302.460 322.900 C 302.098 323.262,300.035 323.400,295.000 323.400 C 289.965 323.400,287.902 323.262,287.540 322.900 C 287.265 322.625,286.664 322.400,286.204 322.400 C 285.010 322.400,278.205 318.777,277.200 317.605 C 277.090 317.477,276.460 316.957,275.800 316.450 C 273.000 314.298,267.600 305.989,267.600 303.834 C 267.600 303.539,267.330 302.651,267.000 301.862 C 266.567 300.825,266.400 298.918,266.400 295.000 C 266.400 291.082,266.567 289.175,267.000 288.138 C 267.330 287.349,267.600 286.440,267.600 286.119 C 267.600 280.927,280.929 267.600,286.122 267.600 C 286.444 267.600,287.314 267.337,288.054 267.016 C 289.975 266.182,299.876 266.170,301.862 267.000 " stroke="none" fill="#fbfbfb" fill-rule="evenodd"></path><path id="path2" d="M100.000 75.490 C 98.570 75.564,96.833 75.890,96.140 76.213 C 95.446 76.536,94.598 76.800,94.254 76.800 C 93.910 76.800,92.767 77.279,91.714 77.864 C 90.661 78.449,89.443 79.124,89.006 79.364 C 85.656 81.204,81.043 85.784,79.428 88.874 C 79.162 89.383,78.462 90.661,77.872 91.714 C 77.282 92.767,76.800 93.910,76.800 94.254 C 76.800 94.598,76.547 95.446,76.237 96.140 C 75.511 97.768,75.210 103.273,75.612 107.600 C 77.410 126.952,99.221 138.508,116.997 129.525 C 133.084 121.396,137.675 99.984,126.343 85.945 C 123.342 82.227,115.882 76.800,113.772 76.800 C 113.466 76.800,112.538 76.545,111.708 76.234 C 110.106 75.632,104.312 75.264,100.000 75.490 M195.600 75.490 C 194.170 75.564,192.433 75.890,191.740 76.213 C 191.046 76.536,190.196 76.800,189.850 76.800 C 189.503 76.800,188.001 77.457,186.510 78.259 C 168.267 88.080,165.120 111.277,180.142 125.197 C 191.910 136.102,211.159 134.819,221.502 122.440 C 224.439 118.926,226.736 114.092,227.770 109.251 C 230.706 95.506,222.047 81.007,208.200 76.482 C 205.713 75.669,200.307 75.243,195.600 75.490 M290.800 75.604 C 284.393 76.173,276.844 80.478,272.479 86.053 C 270.491 88.592,267.634 93.757,267.613 94.851 C 267.606 95.209,267.330 96.149,267.000 96.938 C 266.170 98.924,266.170 109.349,267.000 110.800 C 267.314 111.350,267.578 112.195,267.586 112.678 C 267.673 118.101,280.601 131.184,285.890 131.202 C 286.281 131.204,287.116 131.474,287.746 131.802 C 288.616 132.256,290.359 132.400,295.000 132.400 C 299.641 132.400,301.384 132.256,302.254 131.802 C 302.884 131.474,303.719 131.204,304.110 131.202 C 308.176 131.188,316.729 123.939,320.365 117.427 C 324.864 109.366,324.787 98.242,320.175 90.041 C 316.911 84.237,308.244 76.833,304.680 76.806 C 304.284 76.803,303.474 76.555,302.880 76.256 C 301.572 75.596,294.923 75.238,290.800 75.604 M111.200 76.589 C 111.970 76.881,113.422 77.410,114.426 77.765 C 132.812 84.255,137.978 109.624,123.801 123.801 C 109.624 137.978,84.255 132.812,77.765 114.426 C 77.410 113.422,76.851 111.948,76.523 111.152 C 75.647 109.030,75.676 98.586,76.563 96.873 C 76.913 96.194,77.200 95.357,77.200 95.011 C 77.200 93.927,80.268 88.301,82.143 85.948 C 85.141 82.183,89.998 78.971,96.000 76.784 C 99.084 75.660,108.435 75.540,111.200 76.589 M206.800 76.662 C 226.797 82.302,234.278 106.608,220.859 122.341 C 208.679 136.622,185.088 134.818,175.621 118.882 C 165.791 102.336,172.948 83.478,191.600 76.777 C 194.857 75.607,202.845 75.546,206.800 76.662 M302.260 76.637 C 302.954 76.947,303.764 77.199,304.060 77.198 C 305.087 77.195,310.431 80.154,312.702 81.983 C 328.333 94.577,325.891 119.829,308.165 128.899 C 302.361 131.868,292.627 133.109,288.538 131.400 C 287.749 131.070,286.809 130.797,286.451 130.793 C 282.137 130.749,273.113 122.983,269.861 116.517 C 262.212 101.307,270.473 81.353,286.154 77.162 C 287.059 76.920,287.988 76.568,288.217 76.381 C 289.243 75.542,300.256 75.743,302.260 76.637 M154.800 159.866 C 151.544 160.379,151.192 160.899,152.447 163.340 C 152.917 164.253,153.452 165.304,153.638 165.675 C 154.368 167.135,155.600 171.020,155.600 171.863 C 155.600 172.352,155.759 172.851,155.954 172.971 C 156.148 173.092,156.429 173.998,156.577 174.986 C 156.725 175.973,157.016 176.886,157.223 177.014 C 157.430 177.142,157.600 177.578,157.600 177.983 C 157.600 182.054,166.197 190.000,170.602 190.000 C 171.180 190.000,172.026 190.200,172.483 190.445 C 173.313 190.889,176.900 191.388,183.069 191.919 C 189.229 192.449,192.167 198.521,193.560 213.600 C 193.753 215.690,194.085 217.850,194.298 218.400 C 194.825 219.760,194.522 220.400,193.353 220.400 C 191.736 220.400,188.565 222.264,187.062 224.099 C 185.554 225.939,183.457 226.800,180.483 226.800 C 179.655 226.800,178.623 227.043,178.189 227.340 C 177.755 227.637,176.945 227.991,176.389 228.126 C 174.097 228.681,169.615 233.941,169.604 236.090 C 169.594 237.974,170.026 238.000,200.926 238.000 C 234.024 238.000,232.016 238.215,231.986 234.671 C 231.933 228.459,224.307 225.821,219.476 230.344 L 218.351 231.396 217.585 230.398 C 217.163 229.849,216.814 229.182,216.809 228.915 C 216.764 226.483,208.933 220.950,204.881 220.488 L 203.162 220.292 204.027 219.371 C 204.549 218.816,204.975 217.721,205.099 216.616 C 205.213 215.607,205.462 214.685,205.653 214.567 C 205.844 214.449,206.001 213.598,206.002 212.676 C 206.004 211.754,206.274 210.484,206.602 209.854 C 206.931 209.224,207.200 208.466,207.200 208.168 C 207.200 207.283,211.118 199.588,212.510 197.738 C 213.960 195.812,213.990 195.803,216.200 196.644 C 222.993 199.229,234.800 196.105,234.800 191.722 C 234.800 191.523,235.010 191.150,235.267 190.893 C 236.180 189.980,237.978 183.836,238.805 178.800 C 239.040 177.370,239.410 175.120,239.628 173.800 C 240.265 169.931,241.222 165.911,241.884 164.325 C 243.064 161.496,241.857 160.110,239.119 161.148 C 237.306 161.835,233.741 162.750,230.400 163.386 C 224.001 164.605,221.000 165.247,219.800 165.656 C 219.140 165.881,218.006 166.241,217.280 166.457 C 209.526 168.760,206.040 174.329,205.800 184.800 C 205.596 193.736,206.198 194.141,210.699 188.094 C 214.453 183.052,218.359 178.775,218.383 179.683 C 218.392 180.059,217.657 181.139,216.749 182.083 C 215.841 183.027,214.370 184.880,213.480 186.200 C 212.590 187.520,211.551 188.960,211.170 189.400 C 210.514 190.157,208.566 193.620,206.557 197.600 C 206.057 198.590,204.988 201.020,204.180 203.000 C 203.373 204.980,202.524 207.050,202.294 207.600 C 201.252 210.091,200.425 212.674,200.413 213.476 C 200.368 216.479,199.111 214.559,198.531 210.600 C 197.945 206.608,197.336 203.755,196.738 202.200 C 195.661 199.403,192.337 191.712,191.759 190.681 C 191.233 189.741,191.182 188.778,191.444 184.681 C 191.615 181.996,191.700 179.620,191.633 179.400 C 191.565 179.180,191.375 178.010,191.211 176.800 C 189.572 164.760,172.914 157.013,154.800 159.866 M172.000 160.929 C 175.654 161.698,177.528 162.248,178.139 162.731 C 178.392 162.932,179.269 163.311,180.088 163.575 C 187.209 165.868,192.166 175.625,190.834 184.731 C 190.314 188.287,190.441 189.211,191.889 192.400 C 192.438 193.610,193.153 195.230,193.477 196.000 C 193.801 196.770,194.336 198.022,194.666 198.782 C 196.356 202.680,197.527 207.068,198.138 211.795 C 198.683 216.011,200.768 217.517,200.794 213.714 C 200.797 213.226,201.054 212.236,201.364 211.514 C 202.057 209.902,204.413 204.179,205.610 201.200 C 207.977 195.312,213.599 186.176,217.092 182.541 C 222.906 176.491,223.989 175.241,223.617 175.010 C 223.126 174.707,222.900 174.834,219.950 177.073 C 217.694 178.786,212.472 184.573,209.256 188.923 C 206.849 192.180,206.578 191.761,206.681 184.933 C 206.887 171.260,211.148 167.243,228.480 164.387 C 232.926 163.654,235.414 163.098,235.780 162.756 C 235.989 162.560,236.529 162.392,236.980 162.382 C 237.431 162.373,238.440 162.136,239.222 161.856 C 241.713 160.966,242.082 161.583,240.969 164.780 C 240.117 167.224,238.946 173.054,237.990 179.600 C 237.781 181.030,237.443 182.650,237.239 183.200 C 237.035 183.750,236.775 184.745,236.662 185.410 C 234.982 195.291,226.719 199.356,215.652 195.747 L 213.905 195.177 212.563 196.689 C 209.298 200.367,205.484 209.864,204.535 216.678 C 204.246 218.748,203.247 219.200,198.956 219.200 C 194.962 219.200,194.514 218.706,194.283 214.054 C 193.851 205.356,190.839 195.605,187.669 192.638 C 186.483 191.529,186.160 191.453,180.514 190.957 C 163.888 189.498,160.062 186.279,155.849 170.200 C 155.274 168.006,153.352 163.289,152.713 162.505 C 152.012 161.643,152.689 160.800,154.087 160.794 C 154.809 160.791,155.670 160.606,156.000 160.385 C 156.890 159.787,168.444 160.180,172.000 160.929 M100.200 170.843 C 99.320 171.037,97.970 171.305,97.200 171.439 C 89.258 172.826,76.818 184.088,76.798 189.910 C 76.796 190.290,76.510 191.140,76.162 191.800 C 75.098 193.816,75.249 204.621,76.389 208.000 C 81.164 222.156,95.410 230.727,109.251 227.770 C 127.839 223.799,137.697 204.715,130.063 187.483 C 125.141 176.372,110.973 168.478,100.200 170.843 M291.400 170.849 C 290.520 171.045,289.080 171.314,288.200 171.447 C 280.516 172.609,267.600 184.573,267.600 190.527 C 267.600 190.843,267.330 191.749,267.000 192.538 C 266.170 194.524,266.170 204.949,267.000 206.400 C 267.314 206.950,267.578 207.796,267.586 208.281 C 267.602 209.281,270.396 214.788,271.807 216.600 C 279.624 226.640,293.618 231.055,304.200 226.820 C 304.640 226.644,305.527 226.287,306.171 226.026 C 313.166 223.197,322.400 213.081,322.400 208.246 C 322.400 207.759,322.625 207.135,322.900 206.860 C 323.262 206.498,323.400 204.435,323.400 199.400 C 323.400 194.365,323.262 192.302,322.900 191.940 C 322.625 191.665,322.400 191.071,322.400 190.620 C 322.400 190.169,321.853 188.810,321.185 187.600 C 320.517 186.390,319.687 184.770,319.342 184.000 C 317.292 179.427,308.032 172.790,302.000 171.569 C 301.010 171.369,299.390 171.032,298.400 170.820 C 296.228 170.355,293.565 170.366,291.400 170.849 M108.200 171.644 C 131.860 175.310,140.498 205.373,122.341 220.859 C 106.569 234.311,83.038 227.091,76.605 206.827 C 75.656 203.839,75.630 194.276,76.565 192.468 C 76.914 191.792,77.200 190.944,77.200 190.583 C 77.200 187.027,84.725 177.689,89.639 175.149 C 94.349 172.714,102.202 170.513,104.400 171.012 C 104.730 171.087,106.440 171.372,108.200 171.644 M299.000 171.613 C 322.044 175.378,331.289 202.915,315.009 219.300 C 307.136 227.225,296.006 229.709,285.400 225.909 C 260.987 217.161,260.725 182.517,285.000 173.108 C 287.079 172.302,294.552 170.846,295.600 171.043 C 295.930 171.104,297.460 171.361,299.000 171.613 M206.200 221.549 C 211.374 223.248,214.338 225.614,216.359 229.659 C 217.623 232.189,218.305 232.431,219.850 230.898 C 223.149 227.624,227.881 227.842,230.171 231.373 C 231.205 232.968,231.582 235.717,230.829 236.182 C 230.565 236.345,183.602 236.522,171.100 236.406 C 170.181 236.398,170.217 235.736,171.240 233.794 C 173.104 230.257,176.557 228.020,181.026 227.453 C 185.754 226.853,186.021 226.750,187.096 225.127 C 189.926 220.850,198.932 219.163,206.200 221.549 M96.854 267.016 C 96.114 267.337,95.214 267.606,94.854 267.613 C 92.362 267.661,84.695 273.039,81.686 276.849 C 76.602 283.286,74.830 289.605,75.587 298.600 C 76.459 308.956,85.463 320.032,94.966 322.440 C 107.455 325.603,118.814 322.259,126.137 313.264 C 128.345 310.551,131.198 305.396,131.202 304.110 C 131.204 303.719,131.474 302.884,131.802 302.254 C 132.256 301.384,132.400 299.641,132.400 295.000 C 132.400 290.359,132.256 288.616,131.802 287.746 C 131.474 287.116,131.204 286.281,131.202 285.890 C 131.184 280.601,118.101 267.673,112.678 267.586 C 112.195 267.578,111.350 267.314,110.800 267.000 C 109.372 266.184,98.743 266.196,96.854 267.016 M192.000 267.083 C 185.927 269.190,182.962 270.987,178.981 274.975 C 175.538 278.425,172.204 284.164,171.563 287.744 C 171.400 288.655,171.043 290.632,170.768 292.137 C 170.188 295.321,170.972 301.328,172.473 305.200 C 174.451 310.305,180.560 317.800,184.000 319.342 C 184.770 319.687,186.390 320.517,187.600 321.185 C 188.810 321.853,190.169 322.400,190.620 322.400 C 191.071 322.400,191.665 322.625,191.940 322.900 C 192.302 323.262,194.365 323.400,199.400 323.400 C 204.435 323.400,206.498 323.262,206.860 322.900 C 207.135 322.625,207.759 322.400,208.246 322.400 C 213.081 322.400,223.197 313.166,226.026 306.171 C 226.287 305.527,226.644 304.640,226.820 304.200 C 231.055 293.618,226.640 279.624,216.600 271.807 C 214.788 270.396,209.281 267.602,208.281 267.586 C 207.796 267.578,206.950 267.314,206.400 267.000 C 204.943 266.167,194.467 266.227,192.000 267.083 M288.054 267.016 C 287.314 267.337,286.444 267.600,286.122 267.600 C 280.929 267.600,267.600 280.927,267.600 286.119 C 267.600 286.440,267.330 287.349,267.000 288.138 C 266.567 289.175,266.400 291.082,266.400 295.000 C 266.400 298.918,266.567 300.825,267.000 301.862 C 267.330 302.651,267.600 303.539,267.600 303.834 C 267.600 305.989,273.000 314.298,275.800 316.450 C 276.460 316.957,277.090 317.477,277.200 317.605 C 278.205 318.777,285.010 322.400,286.204 322.400 C 286.664 322.400,287.265 322.625,287.540 322.900 C 287.902 323.262,289.965 323.400,295.000 323.400 C 300.035 323.400,302.098 323.262,302.460 322.900 C 302.735 322.625,303.336 322.400,303.795 322.400 C 309.249 322.400,322.400 309.249,322.400 303.795 C 322.400 303.336,322.625 302.735,322.900 302.460 C 323.262 302.098,323.400 300.035,323.400 295.000 C 323.400 289.965,323.262 287.902,322.900 287.540 C 322.625 287.265,322.400 286.664,322.400 286.204 C 322.400 285.010,318.777 278.205,317.605 277.200 C 317.477 277.090,316.957 276.460,316.450 275.800 C 314.298 273.000,305.989 267.600,303.834 267.600 C 303.539 267.600,302.651 267.330,301.862 267.000 C 299.876 266.170,289.975 266.182,288.054 267.016 M110.774 267.647 C 116.871 269.355,122.368 272.885,125.861 277.336 C 127.846 279.865,130.781 285.290,130.793 286.451 C 130.797 286.809,131.070 287.749,131.400 288.538 C 131.823 289.551,132.000 291.426,132.000 294.898 C 132.000 324.641,92.132 334.071,78.672 307.511 C 77.860 305.910,77.196 304.330,77.196 304.000 C 77.195 303.670,76.912 302.860,76.565 302.200 C 75.832 300.802,75.631 289.131,76.326 288.284 C 76.543 288.018,76.920 287.059,77.162 286.154 C 79.272 278.260,87.214 270.607,96.000 268.002 C 97.650 267.513,99.180 267.056,99.400 266.988 C 101.026 266.481,108.069 266.890,110.774 267.647 M207.576 267.973 C 238.459 278.186,231.811 322.905,199.400 322.974 C 167.615 323.042,160.536 276.805,191.000 268.109 C 192.100 267.795,193.540 267.380,194.200 267.187 C 196.401 266.543,204.734 267.033,207.576 267.973 M302.400 267.750 C 320.249 273.408,328.250 291.891,319.898 308.170 C 309.500 328.433,279.574 327.974,269.771 307.400 C 262.292 291.702,270.416 272.733,286.600 268.109 C 287.700 267.795,289.140 267.381,289.800 267.190 C 291.805 266.609,299.940 266.970,302.400 267.750 " stroke="none" fill="#a4a8a9" fill-rule="evenodd"></path><path id="path3" d="M96.800 76.600 C 96.250 76.914,95.481 77.178,95.091 77.186 C 90.584 77.276,81.743 85.056,78.680 91.627 C 76.593 96.105,76.274 97.166,76.168 100.000 L 76.071 102.600 76.403 100.200 C 78.096 87.981,88.081 78.004,100.200 76.423 L 102.600 76.109 100.200 76.069 C 98.781 76.045,97.391 76.262,96.800 76.600 M107.400 76.384 C 129.761 78.828,139.586 107.520,123.553 123.553 C 107.520 139.586,78.828 129.761,76.384 107.400 L 76.122 105.000 76.061 107.486 C 76.027 108.880,76.248 110.550,76.565 111.286 C 76.876 112.009,77.418 113.422,77.770 114.426 C 84.208 132.799,109.626 137.975,123.801 123.801 C 137.975 109.626,132.799 84.208,114.426 77.770 C 113.422 77.418,112.009 76.876,111.286 76.565 C 110.550 76.248,108.880 76.027,107.486 76.061 L 105.000 76.122 107.400 76.384 M192.400 76.600 C 191.850 76.914,191.069 77.178,190.664 77.186 C 188.724 77.223,182.559 81.012,179.536 84.025 C 161.828 101.675,174.385 131.995,199.400 131.989 C 225.076 131.983,237.436 100.767,218.659 83.351 C 214.118 79.140,207.126 75.937,202.746 76.061 L 200.600 76.122 203.000 76.408 C 220.017 78.435,231.095 95.947,225.752 112.376 C 217.416 138.005,181.072 137.883,173.069 112.200 C 167.979 95.868,179.066 78.412,195.800 76.409 L 198.200 76.122 195.800 76.075 C 194.370 76.047,192.996 76.259,192.400 76.600 M288.230 76.351 C 288.111 76.544,287.238 76.897,286.290 77.136 C 270.611 81.084,262.191 101.266,269.861 116.517 C 273.113 122.983,282.137 130.749,286.451 130.793 C 286.809 130.797,287.749 131.070,288.538 131.400 C 292.627 133.109,302.361 131.868,308.165 128.899 C 315.157 125.321,322.976 114.625,322.775 108.913 C 322.761 108.521,322.307 109.550,321.765 111.200 C 314.868 132.200,290.481 138.590,275.376 123.356 C 259.352 107.194,268.947 79.083,291.400 76.408 L 293.800 76.122 291.124 76.061 C 289.652 76.027,288.350 76.158,288.230 76.351 M298.600 76.408 C 303.395 76.979,308.448 79.171,312.536 82.453 C 314.929 84.375,318.800 88.835,318.800 89.671 C 318.800 89.927,319.036 90.421,319.325 90.769 C 319.955 91.526,320.832 93.680,321.944 97.200 C 322.396 98.630,322.773 99.389,322.783 98.887 C 322.925 91.321,311.662 78.663,303.305 76.997 C 302.592 76.855,301.906 76.572,301.781 76.369 C 301.655 76.166,300.348 76.027,298.876 76.061 L 296.200 76.122 298.600 76.408 M322.948 104.000 C 322.948 106.310,323.014 107.255,323.095 106.100 C 323.176 104.945,323.176 103.055,323.095 101.900 C 323.014 100.745,322.948 101.690,322.948 104.000 M156.000 160.385 C 155.670 160.606,154.826 160.791,154.124 160.794 C 152.312 160.803,152.201 161.304,153.435 163.905 C 154.034 165.167,154.850 167.100,155.248 168.200 C 155.670 169.369,155.977 169.836,155.986 169.324 C 155.994 168.842,155.274 166.883,154.386 164.971 C 153.499 163.058,152.884 161.383,153.019 161.247 C 153.676 160.590,170.223 161.005,173.400 161.759 C 177.271 162.678,181.738 164.651,183.617 166.272 C 184.378 166.928,185.315 167.580,185.700 167.720 C 186.085 167.860,186.400 168.224,186.400 168.527 C 186.400 168.831,186.905 169.782,187.522 170.640 C 189.916 173.967,190.171 175.145,190.193 183.000 L 190.213 190.200 191.972 193.901 C 192.940 195.937,193.815 197.518,193.918 197.415 C 194.021 197.313,193.831 196.637,193.496 195.914 C 190.258 188.921,190.236 188.825,190.834 184.731 C 192.166 175.625,187.209 165.868,180.088 163.575 C 179.269 163.311,178.392 162.932,178.139 162.731 C 175.913 160.971,157.960 159.069,156.000 160.385 M239.200 161.854 C 238.430 162.129,237.431 162.365,236.980 162.377 C 236.529 162.390,235.989 162.560,235.780 162.756 C 235.414 163.098,232.926 163.654,228.480 164.387 C 211.148 167.243,206.887 171.260,206.681 184.933 C 206.578 191.761,206.849 192.180,209.256 188.923 C 212.472 184.573,217.694 178.786,219.950 177.073 C 222.900 174.834,223.126 174.707,223.617 175.010 C 223.989 175.241,222.906 176.491,217.092 182.541 C 213.599 186.176,207.977 195.312,205.610 201.200 C 204.413 204.179,202.057 209.902,201.364 211.514 C 201.054 212.236,200.797 213.226,200.794 213.714 C 200.768 217.517,198.683 216.011,198.138 211.795 C 197.396 206.052,194.095 195.344,194.016 198.420 C 194.007 198.761,194.158 199.211,194.351 199.420 C 195.178 200.314,197.412 209.026,197.937 213.400 C 198.536 218.400,199.868 218.218,201.585 212.900 C 202.278 210.755,203.086 208.460,203.380 207.800 C 204.398 205.518,204.781 204.591,205.610 202.400 C 206.307 200.559,208.323 196.414,210.184 193.000 C 213.443 187.020,221.004 178.201,226.719 173.712 C 230.224 170.959,228.390 170.501,224.400 173.132 C 220.134 175.945,216.756 178.946,213.800 182.551 C 212.920 183.623,211.956 184.755,211.657 185.065 C 211.358 185.375,210.278 186.747,209.257 188.114 L 207.400 190.600 207.266 189.200 C 206.045 176.496,209.044 170.517,218.200 167.394 C 220.009 166.777,227.673 165.014,230.400 164.587 C 232.147 164.314,236.367 163.275,239.184 162.425 C 240.940 161.895,241.439 162.369,240.690 163.854 C 240.372 164.484,239.989 165.810,239.840 166.800 C 239.691 167.790,239.409 169.140,239.214 169.800 C 239.020 170.460,238.581 172.710,238.239 174.800 C 237.897 176.890,237.540 179.050,237.446 179.600 C 237.283 180.550,236.540 183.759,235.612 187.517 C 234.788 190.857,232.352 194.026,229.600 195.340 C 227.125 196.523,219.774 196.576,216.221 195.438 L 213.842 194.676 212.194 196.496 C 209.207 199.795,205.519 208.185,204.498 214.000 C 203.719 218.437,203.833 218.338,199.548 218.305 C 195.076 218.270,194.973 218.149,194.680 212.600 C 194.564 210.400,194.259 207.700,194.003 206.600 C 193.237 203.320,192.361 200.277,191.814 199.000 C 191.532 198.340,190.963 196.990,190.551 196.000 C 189.048 192.393,187.034 190.942,183.164 190.676 C 166.477 189.529,161.580 186.586,157.980 175.541 C 157.023 172.603,156.175 170.506,156.095 170.879 C 156.015 171.253,156.135 171.904,156.361 172.327 C 156.587 172.750,156.948 173.795,157.163 174.648 C 159.994 185.900,165.326 189.625,180.514 190.957 C 186.160 191.453,186.483 191.529,187.669 192.638 C 190.839 195.605,193.851 205.356,194.283 214.054 C 194.514 218.706,194.962 219.200,198.956 219.200 C 203.247 219.200,204.246 218.748,204.535 216.678 C 205.484 209.864,209.298 200.367,212.563 196.689 L 213.905 195.177 215.652 195.747 C 226.719 199.356,234.982 195.291,236.662 185.410 C 236.775 184.745,237.035 183.750,237.239 183.200 C 237.443 182.650,237.781 181.030,237.990 179.600 C 238.946 173.054,240.117 167.224,240.969 164.780 C 242.076 161.598,241.691 160.962,239.200 161.854 M99.800 171.614 C 89.972 173.426,82.985 178.422,79.120 186.400 C 76.601 191.602,76.279 192.605,76.175 195.600 L 76.083 198.200 76.390 195.800 C 78.538 178.975,95.863 167.977,112.200 173.069 C 137.883 181.072,138.005 217.416,112.376 225.752 C 95.947 231.095,78.435 220.017,76.408 203.000 L 76.122 200.600 76.061 202.746 C 75.674 216.355,93.213 230.024,107.713 227.415 C 139.815 221.639,140.208 176.603,108.200 171.644 C 106.440 171.372,104.730 171.087,104.400 171.012 C 104.070 170.937,102.000 171.208,99.800 171.614 M291.000 171.631 C 276.219 174.222,266.989 184.980,267.006 199.600 C 267.033 224.695,297.306 237.118,315.009 219.300 C 318.722 215.563,322.875 207.658,322.778 204.513 C 322.766 204.121,322.386 204.970,321.934 206.400 C 316.184 224.575,297.569 232.394,281.225 223.498 C 275.714 220.498,268.800 212.018,268.800 208.257 C 268.800 207.950,268.507 207.001,268.148 206.149 C 267.672 205.018,267.491 203.305,267.478 199.800 C 267.423 185.029,277.076 174.073,291.974 171.996 C 297.446 171.234,306.744 173.302,309.522 175.900 C 309.817 176.175,310.314 176.400,310.629 176.400 C 310.943 176.400,311.201 176.535,311.201 176.700 C 311.202 176.865,311.760 177.360,312.442 177.800 C 315.793 179.963,319.616 185.774,321.652 191.800 C 322.247 193.560,322.748 194.679,322.767 194.287 C 322.785 193.895,322.425 192.455,321.967 191.087 C 318.445 180.571,310.000 173.410,299.000 171.613 C 297.460 171.361,295.930 171.104,295.600 171.043 C 295.270 170.981,293.200 171.246,291.000 171.631 M322.948 199.200 C 322.948 201.510,323.014 202.455,323.095 201.300 C 323.176 200.145,323.176 198.255,323.095 197.100 C 323.014 195.945,322.948 196.890,322.948 199.200 M193.989 220.916 C 191.017 221.593,188.360 223.216,187.096 225.127 C 186.021 226.750,185.754 226.853,181.026 227.453 C 176.557 228.020,173.104 230.257,171.240 233.794 C 170.217 235.736,170.181 236.398,171.100 236.406 C 183.602 236.522,230.565 236.345,230.829 236.182 C 231.582 235.717,231.205 232.968,230.171 231.373 C 227.881 227.842,223.149 227.624,219.850 230.898 C 218.305 232.431,217.623 232.189,216.359 229.659 C 212.930 222.796,202.914 218.882,193.989 220.916 M206.600 222.592 C 207.480 222.949,208.806 223.547,209.546 223.920 C 211.272 224.792,215.200 228.502,215.200 229.260 C 215.200 229.579,215.366 230.011,215.569 230.220 C 215.771 230.429,216.097 231.230,216.292 232.000 C 216.629 233.329,218.400 234.360,218.400 233.228 C 218.400 232.993,218.598 232.800,218.840 232.800 C 219.082 232.800,219.889 232.191,220.634 231.446 C 223.867 228.213,230.000 229.668,230.000 233.670 L 230.000 235.190 201.000 235.295 L 172.000 235.400 172.000 234.545 C 172.000 233.442,175.298 230.087,176.715 229.749 C 177.312 229.606,177.980 229.357,178.200 229.194 C 178.420 229.031,179.652 228.815,180.937 228.713 C 182.222 228.611,183.394 228.333,183.542 228.094 C 183.690 227.855,184.528 227.601,185.405 227.530 C 186.733 227.422,187.105 227.190,187.628 226.143 C 189.677 222.043,200.326 220.050,206.600 222.592 M99.400 266.988 C 99.180 267.056,97.650 267.513,96.000 268.002 C 87.160 270.623,79.117 278.420,77.136 286.290 C 76.897 287.238,76.544 288.111,76.351 288.230 C 76.158 288.350,76.027 289.652,76.061 291.124 L 76.122 293.800 76.408 291.400 C 79.083 268.947,107.194 259.352,123.356 275.376 C 138.590 290.481,132.200 314.868,111.200 321.765 C 109.550 322.307,108.521 322.761,108.913 322.775 C 114.625 322.976,125.321 315.157,128.899 308.165 C 131.868 302.361,133.109 292.627,131.400 288.538 C 131.070 287.749,130.797 286.809,130.793 286.451 C 130.767 283.871,125.329 275.960,121.581 273.050 C 115.519 268.342,104.618 265.363,99.400 266.988 M194.200 267.187 C 193.540 267.380,192.100 267.795,191.000 268.109 C 171.089 273.792,164.683 299.969,179.566 314.829 C 183.525 318.782,191.184 322.912,194.287 322.767 C 194.679 322.748,193.560 322.247,191.800 321.652 C 185.774 319.616,179.963 315.793,177.800 312.442 C 177.360 311.760,176.865 311.202,176.700 311.201 C 176.535 311.201,176.400 310.943,176.400 310.629 C 176.400 310.314,176.175 309.817,175.900 309.522 C 173.302 306.744,171.234 297.446,171.996 291.974 C 174.073 277.076,185.029 267.423,199.800 267.478 C 203.305 267.491,205.018 267.672,206.149 268.148 C 207.001 268.507,207.950 268.800,208.257 268.800 C 212.018 268.800,220.498 275.714,223.498 281.225 C 232.394 297.569,224.575 316.184,206.400 321.934 C 204.970 322.386,204.121 322.766,204.513 322.778 C 204.905 322.790,206.345 322.424,207.713 321.965 C 234.342 313.025,234.250 276.795,207.576 267.973 C 204.734 267.033,196.401 266.543,194.200 267.187 M289.800 267.190 C 289.140 267.381,287.700 267.795,286.600 268.109 C 268.049 273.410,260.826 296.995,272.974 312.600 C 276.706 317.394,286.706 323.352,289.947 322.712 C 290.306 322.641,289.216 322.170,287.524 321.666 C 277.853 318.785,271.264 312.187,268.304 302.422 C 267.262 298.982,267.170 291.104,268.142 288.400 C 268.497 287.410,268.791 286.371,268.794 286.092 C 268.852 281.054,281.054 268.852,286.092 268.794 C 286.371 268.791,287.410 268.497,288.400 268.142 C 291.104 267.170,298.982 267.262,302.422 268.304 C 312.187 271.264,318.785 277.853,321.666 287.524 C 322.170 289.216,322.641 290.306,322.712 289.947 C 323.352 286.706,317.394 276.706,312.600 272.974 C 306.459 268.193,295.729 265.471,289.800 267.190 M322.950 295.000 C 322.951 297.420,323.016 298.358,323.096 297.085 C 323.176 295.812,323.175 293.832,323.094 292.685 C 323.014 291.538,322.949 292.580,322.950 295.000 M76.061 298.876 C 76.027 300.348,76.166 301.655,76.369 301.781 C 76.572 301.906,76.855 302.592,76.997 303.305 C 78.663 311.662,91.321 322.925,98.887 322.783 C 99.389 322.773,98.630 322.396,97.200 321.944 C 93.680 320.832,91.526 319.955,90.769 319.325 C 90.421 319.036,89.927 318.800,89.671 318.800 C 88.835 318.800,84.375 314.929,82.453 312.536 C 79.171 308.448,76.979 303.395,76.408 298.600 L 76.122 296.200 76.061 298.876 M321.840 302.080 C 318.771 312.265,312.726 318.387,302.400 321.768 C 300.750 322.308,299.721 322.761,300.113 322.775 C 304.038 322.913,313.378 317.398,316.892 312.867 C 319.682 309.271,323.080 301.846,322.720 300.133 C 322.654 299.818,322.258 300.694,321.840 302.080 M101.900 323.095 C 103.055 323.176,104.945 323.176,106.100 323.095 C 107.255 323.014,106.310 322.948,104.000 322.948 C 101.690 322.948,100.745 323.014,101.900 323.095 M197.100 323.095 C 198.255 323.176,200.145 323.176,201.300 323.095 C 202.455 323.014,201.510 322.948,199.200 322.948 C 196.890 322.948,195.945 323.014,197.100 323.095 M292.915 323.096 C 294.188 323.176,296.168 323.175,297.315 323.094 C 298.462 323.014,297.420 322.949,295.000 322.950 C 292.580 322.951,291.642 323.016,292.915 323.096 " stroke="none" fill="#8c8c8f" fill-rule="evenodd"></path><path id="path4" d="M154.500 161.070 C 153.565 161.167,152.800 161.315,152.800 161.399 C 152.800 161.484,153.520 163.104,154.400 165.000 C 155.280 166.896,156.000 168.698,156.000 169.005 C 156.000 169.947,159.615 180.537,160.296 181.590 C 164.032 187.366,170.102 189.778,183.164 190.676 C 187.034 190.942,189.048 192.393,190.551 196.000 C 190.963 196.990,191.532 198.340,191.814 199.000 C 192.361 200.277,193.237 203.320,194.003 206.600 C 194.259 207.700,194.564 210.400,194.680 212.600 C 194.973 218.149,195.076 218.270,199.548 218.305 C 203.833 218.338,203.719 218.437,204.498 214.000 C 205.519 208.185,209.207 199.795,212.194 196.496 L 213.842 194.676 216.221 195.438 C 219.774 196.576,227.125 196.523,229.600 195.340 C 232.352 194.026,234.788 190.857,235.612 187.517 C 236.540 183.759,237.283 180.550,237.446 179.600 C 237.540 179.050,237.897 176.890,238.239 174.800 C 238.581 172.710,239.020 170.460,239.214 169.800 C 239.409 169.140,239.691 167.790,239.840 166.800 C 239.989 165.810,240.372 164.484,240.690 163.854 C 241.439 162.369,240.940 161.895,239.184 162.425 C 236.367 163.275,232.147 164.314,230.400 164.587 C 212.683 167.358,207.576 171.292,207.277 182.400 C 207.197 185.370,207.192 188.430,207.266 189.200 L 207.400 190.600 209.257 188.114 C 210.278 186.747,211.358 185.375,211.657 185.065 C 211.956 184.755,212.920 183.623,213.800 182.551 C 216.756 178.946,220.134 175.945,224.400 173.132 C 228.390 170.501,230.224 170.959,226.719 173.712 C 221.004 178.201,213.443 187.020,210.184 193.000 C 208.323 196.414,206.307 200.559,205.610 202.400 C 204.781 204.591,204.398 205.518,203.380 207.800 C 203.086 208.460,202.278 210.755,201.585 212.900 C 199.868 218.218,198.536 218.400,197.937 213.400 C 197.412 209.026,195.178 200.314,194.351 199.420 C 194.158 199.211,194.000 198.824,194.000 198.561 C 194.000 198.297,193.146 196.308,192.102 194.141 L 190.203 190.200 190.188 183.000 C 190.171 175.144,189.918 173.970,187.522 170.640 C 186.905 169.782,186.400 168.831,186.400 168.527 C 186.400 168.224,186.085 167.860,185.700 167.720 C 185.315 167.580,184.375 166.926,183.612 166.268 C 178.855 162.163,166.037 159.875,154.500 161.070 " stroke="none" fill="#4c7632" fill-rule="evenodd"></path></g></svg>